<svg width="16" height="16" viewBox="0 0 16 16" fill="none" xmlns="http://www.w3.org/2000/svg">
<g clip-path="url(#clip0_2035_1437)">
<path d="M10.0003 1.33332C10.4685 1.33326 10.9285 1.45647 11.3339 1.69056C11.7394 1.92465 12.0761 2.26136 12.3102 2.66685C12.5442 3.07233 12.6674 3.53229 12.6673 4.00048C12.6672 4.46867 12.5439 4.92859 12.3097 5.33398L15.3337 5.33332V6.66665H14.0003V13.3333C14.0003 13.5101 13.9301 13.6797 13.8051 13.8047C13.68 13.9297 13.5105 14 13.3337 14H2.66699C2.49018 14 2.32061 13.9297 2.19559 13.8047C2.07056 13.6797 2.00033 13.5101 2.00033 13.3333V6.66665H0.666992V5.33332L3.69099 5.33398C3.36023 4.76124 3.25412 4.08602 3.39325 3.43943C3.53238 2.79284 3.90682 2.22103 4.44388 1.83502C4.98094 1.44901 5.64228 1.27635 6.29949 1.35057C6.9567 1.42479 7.56288 1.74059 8.00033 2.23665C8.25005 1.95224 8.5577 1.7245 8.90264 1.5687C9.24758 1.41291 9.62183 1.33265 10.0003 1.33332ZM8.66699 6.66665H7.33366V13.3333H8.66699V6.66665ZM6.00033 2.66665C5.65434 2.6651 5.32129 2.79811 5.07156 3.03757C4.82182 3.27703 4.67495 3.60419 4.66196 3.94994C4.64898 4.29569 4.77091 4.63295 5.00199 4.89046C5.23306 5.14798 5.55519 5.30558 5.90033 5.32998L6.00033 5.33332H7.33366V3.99998C7.33367 3.68136 7.21958 3.37326 7.01205 3.13149C6.80452 2.88972 6.51727 2.73026 6.20233 2.68198L6.09966 2.66998L6.00033 2.66665ZM10.0003 2.66665C9.66394 2.66654 9.33995 2.79359 9.09329 3.02232C8.84664 3.25104 8.69555 3.56455 8.67033 3.89998L8.66699 3.99998V5.33332H10.0003C10.3367 5.33342 10.6607 5.20638 10.9074 4.97765C11.154 4.74893 11.3051 4.43542 11.3303 4.09998L11.3337 3.99998C11.3337 3.64636 11.1932 3.30722 10.9431 3.05717C10.6931 2.80713 10.3539 2.66665 10.0003 2.66665Z" fill="#212134"/>
</g>
<defs>
<clipPath id="clip0_2035_1437">
<rect width="16" height="16" fill="white"/>
</clipPath>
</defs>
</svg>
