<svg width="16" height="16" viewBox="0 0 16 16" fill="none" xmlns="http://www.w3.org/2000/svg">
<g clip-path="url(#clip0_2035_1804)">
<path d="M13.3337 14.6667H2.66699V13.3334C2.66699 12.4493 3.01818 11.6015 3.6433 10.9763C4.26842 10.3512 5.11627 10 6.00033 10H10.0003C10.8844 10 11.7322 10.3512 12.3573 10.9763C12.9825 11.6015 13.3337 12.4493 13.3337 13.3334V14.6667ZM8.00033 8.66669C7.47504 8.66669 6.95489 8.56322 6.46959 8.36221C5.98429 8.16119 5.54333 7.86655 5.1719 7.49511C4.80046 7.12368 4.50583 6.68272 4.30481 6.19742C4.10379 5.71212 4.00033 5.19197 4.00033 4.66669C4.00033 4.1414 4.10379 3.62126 4.30481 3.13595C4.50583 2.65065 4.80046 2.20969 5.1719 1.83826C5.54333 1.46683 5.98429 1.17219 6.46959 0.971169C6.95489 0.77015 7.47504 0.666687 8.00033 0.666687C9.06119 0.666687 10.0786 1.08811 10.8288 1.83826C11.5789 2.58841 12.0003 3.60582 12.0003 4.66669C12.0003 5.72755 11.5789 6.74497 10.8288 7.49511C10.0786 8.24526 9.06119 8.66669 8.00033 8.66669Z" fill="#212134"/>
</g>
<defs>
<clipPath id="clip0_2035_1804">
<rect width="16" height="16" fill="white"/>
</clipPath>
</defs>
</svg>
